<?xml version="1.0" encoding="UTF-8"?>
<svg id="Layer_2" data-name="Layer 2" xmlns="http://www.w3.org/2000/svg" viewBox="0 0 533.74 204.34">
  <defs>
    <style>
      .cls-1 {
        fill: #231f20;
      }
    </style>
  </defs>
  <g>
    <path class="cls-1" d="M253.75,127.07h-4.09l-13.34-16.89,11.65-8.89h3.65c.93,0,1.69-.76,1.69-1.69v-6.14c0-.93-.76-1.69-1.69-1.69h-18.94c-.93,0-1.69.76-1.69,1.69v5.16c0,.93.76,1.69,1.69,1.69h3.82l-14.94,11.29v-43.57c0-.93-.76-1.69-1.69-1.69h-13.96c-.93,0-1.69.76-1.69,1.69v6.14c0,.93.76,1.69,1.69,1.69h4.09v51.22h-3.91c-.93,0-1.69.76-1.69,1.69v6.14c0,.93.76,1.69,1.69,1.69h20.36c.93,0,1.69-.76,1.69-1.69v-5.69c0-.93-.76-1.69-1.69-1.69h-4.89v-6.13l6.4-4.89,13.99,19.39c.32.44.83.7,1.37.7h10.43c.93,0,1.69-.76,1.69-1.69v-6.14c0-.93-.76-1.69-1.69-1.69Z"/>
    <path class="cls-1" d="M287.36,83.23c2.57,0,4.45-.67,5.74-2.05,1.27-1.36,1.91-3.06,1.91-5.07s-.64-3.71-1.91-5.07c-1.29-1.38-3.16-2.05-5.74-2.05s-4.45.67-5.74,2.05c-1.27,1.36-1.91,3.06-1.91,5.07s.64,3.71,1.91,5.07c1.29,1.38,3.16,2.05,5.74,2.05Z"/>
    <path class="cls-1" d="M299.18,127.07h-3.91v-33.61c0-.93-.76-1.69-1.69-1.69h-13.78c-.93,0-1.69.76-1.69,1.69v6.14c0,.93.76,1.69,1.69,1.69h3.91v25.79h-3.91c-.93,0-1.69.76-1.69,1.69v6.14c0,.93.76,1.69,1.69,1.69h19.38c.93,0,1.69-.76,1.69-1.69v-6.14c0-.93-.76-1.69-1.69-1.69Z"/>
    <path class="cls-1" d="M347.2,90.35c-4.6,0-8.67.97-12.09,2.89-3.42,1.92-6.13,4.67-8.05,8.18-1.92,3.51-2.89,7.77-2.89,12.67s1.02,8.85,3.02,12.45c2.01,3.6,4.92,6.44,8.67,8.45,3.75,2.01,8.31,3.02,13.56,3.02,4.07,0,7.78-.66,11.03-1.96,2.64-1.06,4.91-2.43,6.73-4.08.68-.62.75-1.66.15-2.36l-4.1-4.74c-.61-.7-1.67-.78-2.37-.18-.99.84-2.17,1.57-3.52,2.16-1.95.86-4.25,1.29-6.85,1.29-4.19,0-7.54-1.05-9.96-3.11-2.42-2.06-3.86-4.82-4.27-8.18h30.44c.87,0,1.6-.66,1.68-1.53.02-.26.05-.53.06-.82.06-.92.09-1.67.09-2.27,0-6.73-1.91-12.11-5.69-16-3.83-3.95-8.95-5.87-15.65-5.87ZM336.26,109.37c.35-2.89,1.55-5.27,3.56-7.07,2.01-1.8,4.55-2.71,7.56-2.71s5.46.91,7.11,2.71c1.65,1.8,2.64,4.18,2.93,7.07h-21.16Z"/>
    <path class="cls-1" d="M413.26,127.07h-3.82v-59.04c0-.93-.76-1.69-1.69-1.69h-13.96c-.93,0-1.69.76-1.69,1.69v6.14c0,.93.76,1.69,1.69,1.69h4.09v51.22h-3.91c-.93,0-1.69.76-1.69,1.69v6.14c0,.93.76,1.69,1.69,1.69h19.29c.93,0,1.69-.76,1.69-1.69v-6.14c0-.93-.76-1.69-1.69-1.69Z"/>
    <path class="cls-1" d="M484.62,101.68c-2.04-3.57-4.94-6.38-8.63-8.36-3.69-1.98-8.04-2.98-12.94-2.98s-9.25,1-12.94,2.98c-3.69,1.98-6.59,4.79-8.63,8.36-2.04,3.57-3.07,7.77-3.07,12.49s1.03,8.93,3.07,12.49c2.03,3.57,4.94,6.38,8.63,8.36,3.69,1.98,8.04,2.98,12.94,2.98s9.25-1,12.94-2.98c3.69-1.98,6.59-4.79,8.63-8.36,2.03-3.57,3.07-7.77,3.07-12.49s-1.03-8.92-3.07-12.49ZM475.77,114.18c0,4.01-1.15,7.29-3.42,9.74-2.27,2.45-5.4,3.69-9.29,3.69s-6.95-1.24-9.25-3.69c-2.3-2.45-3.47-5.72-3.47-9.74s1.17-7.29,3.47-9.74c2.3-2.45,5.41-3.69,9.25-3.69s7.02,1.24,9.29,3.69c2.27,2.45,3.42,5.73,3.42,9.74Z"/>
  </g>
  <path class="cls-1" d="M158.87,102.17c0-31.31-25.38-56.69-56.69-56.69s-56.69,25.38-56.69,56.69c0,28.35,14.17,28.35,7.09,49.61-1.6,4.81.15,6.58,3.46,6.58,7.03,0,21.08-7.99,24.89-11.81,1.09-1.09,2.13-1.56,3.12-1.56,5.46,0,9.89,13.87,18.14,13.87s12.68-13.87,18.14-13.87c1,0,2.03.46,3.12,1.56,3.81,3.81,17.86,11.81,24.89,11.81,3.31,0,5.06-1.77,3.46-6.58-7.09-21.26,7.09-21.26,7.09-49.61ZM145.44,124.92c-2.7,6.21-5.47,12.6-3.46,23.02-4.9-2.14-10.67-5.54-12.53-7.4-3.35-3.35-6.81-4.05-9.14-4.05-6.52,0-10.55,5.01-13.79,9.04-1.14,1.42-3.18,3.96-4.35,4.7-1.17-.75-3.21-3.28-4.35-4.7-3.24-4.03-7.27-9.04-13.79-9.04-2.32,0-5.79.7-9.14,4.05-1.86,1.86-7.63,5.26-12.53,7.4,2.01-10.42-.77-16.81-3.46-23.02-2.42-5.57-4.92-11.34-4.92-22.75,0-26.57,21.62-48.19,48.19-48.19s48.19,21.62,48.19,48.19c0,11.41-2.5,17.17-4.92,22.75Z"/>
</svg>